<?xml version="1.0" encoding="iso-8859-1"?>
<!-- Generator: Adobe Illustrator 19.0.0, SVG Export Plug-In . SVG Version: 6.00 Build 0)  -->
<svg version="1.1" id="Layer_1" xmlns="http://www.w3.org/2000/svg" xmlns:xlink="http://www.w3.org/1999/xlink" x="0px" y="0px"
	 viewBox="0 0 512.004 512.004" style="enable-background:new 0 0 512.004 512.004;" xml:space="preserve">
<g>
	<path style="fill:#ECF0F1;" d="M406.071,97.105V26.14c0-14.433-11.705-26.138-26.138-26.138H149.726
		c-14.433,0-26.138,11.705-26.138,26.138v159.241h61.519c14.777,0,26.756,11.979,26.756,26.756v123.039
		c0,14.777-11.979,26.756-26.756,26.756l-17.655,44.138l-17.655-44.138h-26.209v123.93c0,14.433,11.705,26.138,26.147,26.138
		h230.197c14.433,0,26.138-11.705,26.138-26.138V273.657h-43.864l-17.655,44.138l-17.655-44.138
		c-14.777,0-26.756-11.979-26.756-26.756V123.862c0-14.777,11.979-26.756,26.756-26.756H406.071z"/>
	<path style="fill:#38454F;" d="M406.071,97.105V52.967H123.588v132.414h61.519c14.777,0,26.756,11.979,26.756,26.756v123.039
		c0,14.777-11.979,26.756-26.756,26.756l-17.655,44.138l-17.655-44.138h-26.209v79.448h282.483V273.657h-43.864l-17.655,44.138
		l-17.655-44.138c-14.777,0-26.756-11.979-26.756-26.756V123.862c0-14.777,11.979-26.756,26.756-26.756H406.071z"/>
	<g>
		<path style="fill:#546A79;" d="M300.14,35.312h-44.138c-4.873,0-8.828-3.955-8.828-8.828s3.955-8.828,8.828-8.828h44.138
			c4.873,0,8.828,3.955,8.828,8.828S305.013,35.312,300.14,35.312"/>
		<path style="fill:#546A79;" d="M229.519,35.312h-8.828c-4.873,0-8.828-3.955-8.828-8.828s3.955-8.828,8.828-8.828h8.828
			c4.873,0,8.828,3.955,8.828,8.828S234.392,35.312,229.519,35.312"/>
	</g>
	<g>
		<path style="fill:#BDC3C7;" d="M114.76,97.105c-4.873,0-8.828-3.955-8.828-8.828V79.45c0-4.873,3.955-8.828,8.828-8.828
			c4.873,0,8.828,3.955,8.828,8.828v8.828C123.588,93.15,119.633,97.105,114.76,97.105"/>
		<path style="fill:#BDC3C7;" d="M114.76,132.416c-4.873,0-8.828-3.955-8.828-8.828v-8.828c0-4.873,3.955-8.828,8.828-8.828
			c4.873,0,8.828,3.955,8.828,8.828v8.828C123.588,128.461,119.633,132.416,114.76,132.416"/>
		<path style="fill:#BDC3C7;" d="M291.312,476.691c0,14.627-11.855,26.483-26.483,26.483c-14.627,0-26.483-11.855-26.483-26.483
			s11.855-26.483,26.483-26.483C279.457,450.209,291.312,462.064,291.312,476.691"/>
	</g>
	<path style="fill:#955BA5;" d="M485.247,273.657H362.208l-17.655,44.138l-17.655-44.138c-14.777,0-26.756-11.979-26.756-26.756
		V123.862c0-14.777,11.979-26.756,26.756-26.756h158.349c14.777,0,26.756,11.979,26.756,26.756v123.039
		C512.004,261.678,500.025,273.657,485.247,273.657"/>
	<path style="fill:#C03A2B;" d="M26.756,361.933h123.039l17.655,44.138l17.655-44.138c14.777,0,26.756-11.979,26.756-26.756V212.137
		c0-14.777-11.979-26.756-26.756-26.756H26.756C11.979,185.381,0,197.36,0,212.137v123.039C0,349.954,11.979,361.933,26.756,361.933
		"/>
	<g>
		<path style="fill:#FFFFFF;" d="M105.933,238.347c4.988-11.017,16.013-17.655,29.263-17.655c17.858,0,30.711,14.23,32.335,31.188
			c0,0,0.874,4.211-1.051,11.794c-2.622,10.319-8.766,19.491-17.046,26.492l-43.502,36.458L62.43,290.156
			c-8.28-6.991-14.424-16.163-17.046-26.483c-1.924-7.583-1.05-11.794-1.05-11.794c1.624-16.958,14.477-31.188,32.335-31.188
			C89.92,220.691,100.945,227.33,105.933,238.347"/>
		<polygon style="fill:#FFFFFF;" points="361.933,238.347 450.209,238.347 450.209,167.726 361.933,167.726 		"/>
	</g>
	<g>
		<path style="fill:#F0C419;" d="M406.08,176.553c-2.684,0-5.332-1.218-7.071-3.531l-26.483-35.31
			c-2.922-3.902-2.136-9.437,1.766-12.359c3.911-2.931,9.445-2.127,12.359,1.766l26.483,35.31c2.922,3.902,2.136,9.437-1.766,12.359
			C409.778,175.98,407.916,176.553,406.08,176.553"/>
		<path style="fill:#F0C419;" d="M406.062,176.553c-1.836,0-3.699-0.574-5.288-1.766c-3.902-2.922-4.687-8.457-1.766-12.359
			l26.483-35.31c2.922-3.893,8.457-4.696,12.359-1.766c3.902,2.922,4.687,8.457,1.766,12.359l-26.483,35.31
			C411.394,175.335,408.746,176.553,406.062,176.553"/>
		<polygon style="fill:#F0C419;" points="397.243,238.347 414.898,238.347 414.898,167.726 397.243,167.726 		"/>
	</g>
</g>
<g>
</g>
<g>
</g>
<g>
</g>
<g>
</g>
<g>
</g>
<g>
</g>
<g>
</g>
<g>
</g>
<g>
</g>
<g>
</g>
<g>
</g>
<g>
</g>
<g>
</g>
<g>
</g>
<g>
</g>
</svg>
